<?xml version="1.0" standalone="no"?>
<!DOCTYPE svg PUBLIC "-//W3C//DTD SVG 20010904//EN"
 "http://www.w3.org/TR/2001/REC-SVG-20010904/DTD/svg10.dtd">
<svg version="1.0" xmlns="http://www.w3.org/2000/svg"
 width="288.000000pt" height="288.000000pt" viewBox="0 0 288.000000 288.000000"
 preserveAspectRatio="xMidYMid meet">

<g transform="translate(0.000000,288.000000) scale(0.100000,-0.100000)"
fill="#000000" stroke="none">
<path d="M1250 2801 c-335 -71 -601 -325 -692 -663 -32 -119 -32 -338 0 -451
65 -227 194 -410 374 -532 l53 -35 7 112 c6 98 30 282 44 343 4 15 -3 23 -24
33 -16 7 -46 28 -65 47 -143 139 -152 374 -27 642 56 120 130 221 235 321 98
94 205 159 306 186 l54 15 -90 0 c-49 0 -128 -8 -175 -18z"/>
<path d="M1913 2664 c32 -49 65 -146 73 -217 l6 -54 -47 -6 c-26 -4 -68 -7
-92 -7 l-45 0 7 32 c12 55 6 129 -13 162 -45 76 -155 113 -269 90 -264 -54
-522 -382 -541 -686 -6 -103 12 -162 60 -203 l30 -26 32 63 c139 276 349 430
585 429 47 0 112 -7 143 -15 74 -20 148 -55 147 -70 0 -6 -15 -56 -33 -111
l-32 -100 -43 0 c-41 0 -43 2 -56 39 -19 55 -45 88 -86 108 -106 55 -243 -16
-354 -183 -45 -67 -89 -158 -81 -166 7 -8 110 42 161 77 26 18 71 56 100 86
52 54 53 54 111 53 33 -1 72 -4 88 -8 29 -6 29 -6 -62 -92 -133 -125 -310
-241 -405 -264 -15 -4 -32 -16 -37 -26 -30 -55 -28 -335 3 -490 l13 -64 79 -9
c112 -12 255 6 377 48 295 101 510 336 589 642 31 124 32 303 1 428 -24 96
-82 228 -132 301 -49 72 -148 173 -215 219 -86 61 -89 62 -62 20z"/>
<path d="M692 894 c-15 -10 -22 -25 -22 -48 0 -39 23 -63 68 -72 17 -3 39 -15
49 -26 17 -19 17 -20 -2 -34 -10 -8 -27 -14 -36 -14 -19 0 -49 25 -49 41 0 5
-9 9 -20 9 -27 0 -25 -26 5 -55 34 -35 96 -35 130 0 46 45 22 96 -55 118 -46
13 -65 41 -38 58 21 14 37 11 55 -11 20 -23 53 -27 53 -5 0 47 -90 73 -138 39z"/>
<path d="M870 790 l0 -120 24 0 25 0 0 120 0 120 -24 0 -25 0 0 -120z"/>
<path d="M971 884 c-37 -47 -21 -82 50 -109 40 -15 55 -27 57 -43 2 -16 -3
-23 -21 -27 -30 -8 -67 10 -67 30 0 8 -9 15 -20 15 -13 0 -20 -7 -20 -20 0
-34 35 -60 83 -60 58 0 87 22 87 65 0 41 -18 61 -71 76 -50 15 -66 33 -49 54
17 21 48 19 62 -5 16 -26 60 -28 51 -2 -13 37 -36 52 -79 52 -34 0 -47 -5 -63
-26z"/>
<path d="M1140 890 c0 -16 7 -20 30 -20 l30 0 0 -100 0 -100 25 0 25 0 0 100
0 100 30 0 c23 0 30 4 30 20 0 18 -7 20 -85 20 -78 0 -85 -2 -85 -20z"/>
<path d="M1340 790 l0 -120 80 0 c73 0 80 2 80 20 0 18 -7 20 -55 20 l-55 0 0
35 0 35 50 0 c38 0 50 4 50 15 0 11 -12 15 -50 15 -49 0 -50 1 -50 30 0 30 1
30 55 30 48 0 55 2 55 20 0 18 -7 20 -80 20 l-80 0 0 -120z"/>
<path d="M1540 791 c0 -114 1 -121 20 -121 17 0 19 8 22 83 l3 82 25 -80 c20
-61 30 -80 44 -80 14 0 24 19 44 80 l27 80 3 -82 c3 -75 5 -83 22 -83 19 0 20
7 20 121 l0 120 -32 -3 c-30 -3 -33 -6 -55 -82 -14 -43 -26 -76 -29 -73 -3 3
-15 38 -27 78 -22 70 -24 74 -55 77 l-32 3 0 -120z"/>
<path d="M1834 790 c-40 -117 -41 -120 -20 -120 15 0 25 9 33 30 10 26 16 30
51 30 37 0 41 -3 47 -30 5 -23 12 -30 30 -30 l24 0 -41 120 c-34 104 -43 120
-61 120 -19 0 -28 -17 -63 -120z m86 -12 c0 -13 -8 -18 -25 -18 -29 0 -29 0
-13 53 l12 40 13 -29 c6 -16 12 -37 13 -46z"/>
<path d="M2042 894 c-15 -10 -22 -25 -22 -48 0 -39 23 -63 68 -72 17 -3 38
-14 47 -24 15 -16 15 -19 0 -34 -9 -9 -25 -16 -35 -16 -18 0 -50 25 -50 39 0
4 -9 7 -20 8 -27 2 -25 -23 5 -52 53 -54 167 -14 150 53 -9 37 -24 50 -75 65
-46 13 -65 41 -38 58 21 14 37 11 55 -11 20 -23 53 -27 53 -5 0 47 -90 73
-138 39z"/>
</g>
</svg>
